<svg width="82" height="51" viewBox="0 0 82 51" fill="none" xmlns="http://www.w3.org/2000/svg">
<rect width="82" height="50" rx="8" transform="matrix(-1 0 0 1 82 0.5)" fill="#09A4D9"/>
<path d="M43.5346 34.8789L33.4723 26.8844C32.9861 26.4289 32.6049 26.0864 32.6049 25.5C32.6049 24.9136 32.9296 24.5954 33.4723 24.1156L43.5346 16.1227C43.7755 16.003 44.0428 15.946 44.3116 15.957C44.5804 15.968 44.8421 16.0467 45.0724 16.1857C45.5393 16.4652 45.8462 16.9659 45.8462 17.5055V33.4962C45.8403 33.7638 45.766 34.0255 45.6302 34.2563C45.4945 34.487 45.3019 34.6791 45.0708 34.8143C44.8413 34.9547 44.5799 35.0344 44.3111 35.0457C44.0423 35.057 43.775 34.9996 43.5346 34.8789Z" fill="#1E1E1E"/>
</svg>
