<svg width="12" height="13" viewBox="0 0 12 13" fill="none" xmlns="http://www.w3.org/2000/svg">
                    <path d="M9.50001 3.5C9.3674 3.5 9.24022 3.55268 9.14646 3.64645C9.05269 3.74021 9.00001 3.86739 9.00001 4V6C9.00001 6.13261 8.94733 6.25979 8.85356 6.35355C8.75979 6.44732 8.63262 6.5 8.50001 6.5H3.70501L4.35501 5.855C4.44916 5.76085 4.50205 5.63315 4.50205 5.5C4.50205 5.36685 4.44916 5.23915 4.35501 5.145C4.26086 5.05085 4.13316 4.99795 4.00001 4.99795C3.86686 4.99795 3.73916 5.05085 3.64501 5.145L2.14501 6.645C2.09949 6.69255 2.06381 6.74862 2.04001 6.81C1.99 6.93173 1.99 7.06827 2.04001 7.19C2.06381 7.25138 2.09949 7.30745 2.14501 7.355L3.64501 8.855C3.69149 8.90186 3.74679 8.93906 3.80772 8.96445C3.86865 8.98983 3.934 9.0029 4.00001 9.0029C4.06602 9.0029 4.13137 8.98983 4.1923 8.96445C4.25323 8.93906 4.30853 8.90186 4.35501 8.855C4.40187 8.80852 4.43907 8.75322 4.46445 8.69229C4.48984 8.63136 4.50291 8.56601 4.50291 8.5C4.50291 8.43399 4.48984 8.36864 4.46445 8.30771C4.43907 8.24678 4.40187 8.19148 4.35501 8.145L3.70501 7.5H8.50001C8.89783 7.5 9.27937 7.34196 9.56067 7.06066C9.84197 6.77936 10 6.39782 10 6V4C10 3.86739 9.94733 3.74021 9.85356 3.64645C9.75979 3.55268 9.63262 3.5 9.50001 3.5Z" fill="white"/>
                </svg>