<?xml version="1.0" encoding="utf-8"?>
<!-- Generator: Adobe Illustrator 27.3.1, SVG Export Plug-In . SVG Version: 6.00 Build 0)  -->
<svg version="1.1" id="Layer_2_00000044165375394183330300000010272399157255949192_"
	 xmlns="http://www.w3.org/2000/svg" xmlns:xlink="http://www.w3.org/1999/xlink" x="0px" y="0px" viewBox="0 0 80 80"
	 style="enable-background:new 0 0 80 80;" xml:space="preserve">
<style type="text/css">
	.st0{fill:#055D7B;}
	.st1{fill:#FFFFFF;}
</style>
<rect x="11.9" y="11.9" transform="matrix(0.7071 -0.7071 0.7071 0.7071 -16.5686 39.9996)" class="st0" width="56.2" height="56.2"/>
<g id="Layer_1-2_00000053536351883017602830000012012945135990361735_">
	<g id="Iconmark_Dark_00000075848094459801433010000017618774068923885743_">
		<g>
			<path class="st1" d="M40,35.2L25.1,20.3L40,5.4l14.9,14.9L40,35.2z"/>
			<path class="st1" d="M20.3,54.9L5.4,40l14.9-14.9l4.5,4.5L14.4,40l10.4,10.4L20.3,54.9z"/>
			<path class="st1" d="M40,44.8L25.1,59.7L40,74.6l14.9-14.9L40,44.8z"/>
			<path class="st1" d="M54.9,50.1l4.8,4.8L74.6,40L59.7,25.1l-4.8,4.8L65,40L54.9,50.1z"/>
		</g>
	</g>
</g>
</svg>
