<svg width="152" height="44" viewBox="0 0 152 44" fill="none" xmlns="http://www.w3.org/2000/svg">
        <g clip-path="url(#clip0_45_145)">
        <path d="M21.6988 18.99L12.3683 9.745L21.6988 0.5L31.0293 9.745L21.6988 18.99Z" fill="white"/>
        <path d="M21.6988 25.01L12.3683 34.255L21.6988 43.5L31.0293 34.255L21.6988 25.01Z" fill="white"/>
        <path d="M31.0293 28.235L34.0671 31.245L43.3976 22L34.0671 12.755L31.0293 15.765L37.3219 22L31.0293 28.235Z" fill="white"/>
        <path d="M12.2056 28.2887L9.16773 31.2987L-0.162743 22.0537L9.16773 12.8088L12.2056 15.8188L5.91292 22.0537L12.2056 28.2887Z" fill="white"/>
        <path d="M139.089 34.5238H139.035V40.4363H138.276V33.4488H139.469L141.856 39.3613H141.91V33.4488H142.67V40.4363H141.476L139.089 34.5238Z" fill="white"/>
        <path d="M134.424 40.49C133.99 40.49 133.61 40.3825 133.285 40.275C132.959 40.1137 132.742 39.845 132.525 39.5762C132.308 39.2537 132.2 38.8775 132.091 38.4475C131.983 38.0175 131.929 37.48 131.929 36.9425C131.929 36.405 131.983 35.8675 132.091 35.4375C132.2 35.0075 132.308 34.6312 132.525 34.3087C132.742 33.9862 133.014 33.7712 133.285 33.61C133.61 33.4487 133.936 33.3412 134.424 33.3412C134.912 33.3412 135.238 33.4487 135.563 33.61C135.889 33.7712 136.106 33.9862 136.323 34.3087C136.54 34.6312 136.648 35.0075 136.757 35.4375C136.865 35.8675 136.919 36.405 136.919 36.9425C136.919 37.48 136.865 38.0175 136.757 38.4475C136.648 38.8775 136.54 39.2537 136.323 39.5762C136.106 39.8987 135.889 40.1137 135.563 40.275C135.238 40.4362 134.858 40.49 134.424 40.49ZM134.424 39.7912C134.695 39.7912 134.966 39.7375 135.129 39.63C135.346 39.5225 135.509 39.3612 135.617 39.1462C135.726 38.9312 135.834 38.7162 135.889 38.4475C135.943 38.1787 135.997 37.8563 135.997 37.48V36.3512C135.997 35.975 135.943 35.7062 135.889 35.3837C135.834 35.115 135.726 34.8462 135.617 34.6312C135.509 34.4162 135.346 34.255 135.129 34.1475C134.912 34.04 134.695 33.9862 134.424 33.9862C134.153 33.9862 133.882 34.04 133.719 34.1475C133.502 34.255 133.339 34.4162 133.231 34.6312C133.122 34.8462 133.014 35.0612 132.959 35.3837C132.905 35.6525 132.905 35.975 132.905 36.3512V37.48C132.905 37.8563 132.959 38.1787 132.959 38.4475C133.014 38.7162 133.122 38.985 133.231 39.1462C133.339 39.3612 133.502 39.5225 133.719 39.63C133.882 39.7375 134.153 39.7912 134.424 39.7912Z" fill="white"/>
        <path d="M126.178 40.3825V39.7375H127.914V34.0938H126.178V33.4488H130.572V34.0938H128.837V39.7375H130.572V40.3825H126.178Z" fill="white"/>
        <path d="M122.707 34.1475V40.4363H121.839V34.1475H119.506V33.395H125.039V34.1475H122.707Z" fill="white"/>
        <path d="M114.841 33.395V37.5875C114.841 37.91 114.841 38.2325 114.895 38.5013C114.949 38.77 114.949 38.985 115.058 39.2C115.166 39.3613 115.275 39.5225 115.438 39.63C115.655 39.7375 115.872 39.7913 116.197 39.7913C116.522 39.7913 116.794 39.7375 116.956 39.63C117.173 39.5225 117.282 39.415 117.39 39.2C117.499 38.985 117.553 38.77 117.553 38.5013C117.553 38.2325 117.607 37.91 117.607 37.5875V33.395H118.475V37.3725C118.475 37.91 118.421 38.34 118.421 38.7163C118.367 39.0925 118.258 39.415 118.096 39.6838C117.933 39.9525 117.716 40.1138 117.445 40.275C117.173 40.3825 116.794 40.4363 116.305 40.4363C115.817 40.4363 115.438 40.3825 115.166 40.275C114.895 40.1675 114.678 39.9525 114.515 39.6838C114.353 39.415 114.244 39.0925 114.19 38.7163C114.136 38.34 114.136 37.8563 114.136 37.3725V33.395H114.841Z" fill="white"/>
        <path d="M108.331 40.3825V33.395H109.199V39.6838H112.562V40.4363H108.331V40.3825Z" fill="white"/>
        <path d="M104.1 40.49C103.666 40.49 103.286 40.3825 102.961 40.275C102.635 40.1137 102.418 39.845 102.201 39.5762C101.984 39.2537 101.876 38.8775 101.767 38.4475C101.659 38.0175 101.605 37.48 101.605 36.9425C101.605 36.405 101.659 35.8675 101.767 35.4375C101.876 35.0075 101.984 34.6312 102.201 34.3087C102.418 33.9862 102.635 33.7712 102.961 33.61C103.286 33.4487 103.666 33.3412 104.1 33.3412C104.534 33.3412 104.914 33.4487 105.239 33.61C105.565 33.7712 105.782 33.9862 105.999 34.3087C106.216 34.6312 106.324 35.0075 106.433 35.4375C106.541 35.8675 106.595 36.405 106.595 36.9425C106.595 37.48 106.541 38.0175 106.433 38.4475C106.324 38.8775 106.216 39.2537 105.999 39.5762C105.782 39.8987 105.565 40.1137 105.239 40.275C104.914 40.4362 104.534 40.49 104.1 40.49ZM104.1 39.7912C104.371 39.7912 104.642 39.7375 104.805 39.63C105.022 39.5225 105.185 39.3612 105.293 39.1462C105.402 38.9312 105.51 38.7162 105.565 38.4475C105.619 38.1787 105.673 37.8563 105.673 37.48V36.3512C105.673 35.975 105.619 35.7062 105.565 35.3837C105.51 35.115 105.402 34.8462 105.293 34.6312C105.185 34.4162 105.022 34.255 104.805 34.1475C104.588 34.04 104.371 33.9862 104.1 33.9862C103.829 33.9862 103.557 34.04 103.395 34.1475C103.178 34.255 103.015 34.4162 102.906 34.6312C102.798 34.8462 102.689 35.0612 102.635 35.3837C102.581 35.6525 102.581 35.975 102.581 36.3512V37.48C102.581 37.8563 102.635 38.1787 102.635 38.4475C102.689 38.7162 102.798 38.985 102.906 39.1462C103.015 39.3612 103.178 39.5225 103.395 39.63C103.612 39.7375 103.829 39.7912 104.1 39.7912Z" fill="white"/>
        <path d="M98.0243 40.49C97.3733 40.49 96.8851 40.3825 96.4511 40.1675C96.0171 39.9525 95.6916 39.63 95.4747 39.2538L96.0714 38.77C96.3426 39.0925 96.6138 39.3613 96.9393 39.5225C97.2648 39.6838 97.5903 39.7913 98.0243 39.7913C98.5125 39.7913 98.9465 39.6838 99.2177 39.415C99.4889 39.2 99.5974 38.8775 99.5974 38.4475C99.5974 38.125 99.4889 37.8563 99.3262 37.6413C99.1092 37.4263 98.7837 37.3188 98.2955 37.2113L97.536 37.1038C97.2106 37.05 96.8851 36.9425 96.6681 36.835C96.4511 36.7275 96.2341 36.5663 96.1256 36.405C95.9629 36.2438 95.9086 36.0288 95.8001 35.8675C95.7459 35.6525 95.6916 35.4375 95.6916 35.2225C95.6916 34.5775 95.9086 34.0938 96.3426 33.7713C96.7766 33.4488 97.3191 33.2875 98.0785 33.2875C98.621 33.2875 99.1092 33.395 99.4889 33.5563C99.8687 33.7175 100.194 33.9863 100.411 34.3625L99.8144 34.9C99.5974 34.6313 99.3804 34.4163 99.1092 34.255C98.838 34.0938 98.4582 33.9863 98.0243 33.9863C97.536 33.9863 97.1563 34.0938 96.9393 34.3088C96.6681 34.5238 96.5596 34.7925 96.5596 35.2225C96.5596 35.545 96.6681 35.8138 96.8308 35.975C97.0478 36.19 97.3733 36.2975 97.8615 36.405L98.621 36.5125C98.9465 36.5663 99.2719 36.6738 99.4889 36.7813C99.7059 36.8888 99.9229 37.05 100.031 37.2113C100.194 37.3725 100.303 37.5875 100.357 37.7488C100.411 37.9638 100.465 38.1788 100.465 38.3938C100.465 39.0388 100.248 39.5763 99.8144 39.8988C99.4347 40.3288 98.838 40.5438 98.0243 40.49Z" fill="white"/>
        <path d="M146.467 40.5437C145.816 40.5437 145.328 40.4362 144.894 40.2212C144.514 40.0062 144.134 39.6837 143.917 39.3075L144.514 38.8237C144.785 39.1462 145.056 39.415 145.382 39.5762C145.707 39.7375 146.033 39.845 146.467 39.845C147.009 39.845 147.389 39.7375 147.66 39.4687C147.931 39.2 148.04 38.9312 148.04 38.5012C148.04 38.1787 147.931 37.91 147.769 37.695C147.552 37.48 147.226 37.3725 146.738 37.265L145.924 37.1575C145.599 37.1037 145.273 36.9962 145.056 36.8887C144.839 36.7812 144.622 36.62 144.514 36.4587C144.351 36.2975 144.243 36.0825 144.188 35.9212C144.134 35.7062 144.08 35.4912 144.08 35.2762C144.08 34.6312 144.297 34.1475 144.731 33.825C145.165 33.5025 145.707 33.3412 146.467 33.3412C147.009 33.3412 147.497 33.4487 147.877 33.61C148.257 33.7712 148.582 34.04 148.799 34.4162L148.203 34.9537C147.986 34.685 147.769 34.47 147.497 34.3087C147.226 34.1475 146.847 34.04 146.413 34.04C145.924 34.04 145.545 34.1475 145.328 34.3625C145.056 34.5775 144.948 34.8462 144.948 35.2762C144.948 35.5987 145.056 35.8675 145.219 36.0287C145.436 36.2437 145.762 36.3512 146.25 36.4587L147.009 36.5662C147.335 36.62 147.66 36.7275 147.877 36.835C148.094 36.9425 148.311 37.1037 148.42 37.265C148.582 37.4262 148.691 37.6412 148.745 37.8025C148.799 37.9637 148.854 38.2325 148.854 38.4475C148.854 39.0925 148.637 39.63 148.203 39.9525C147.877 40.3825 147.28 40.5437 146.467 40.5437Z" fill="white"/>
        <path d="M88.4225 36.7813L89.7787 35.4375L91.1349 36.7813L89.7787 38.125L88.4225 36.7813Z" fill="white"/>
        <path d="M80.2855 40.4363H79.4175V33.395H82.0214C82.6724 33.395 83.1606 33.5563 83.5403 33.9325C83.9201 34.3088 84.0828 34.7925 84.0828 35.4375C84.0828 36.0288 83.92 36.4588 83.6488 36.7813C83.3233 37.1038 82.8894 37.3188 82.3469 37.3725L84.137 40.4363H83.1606L81.4247 37.4263H80.2855V40.4363ZM81.9672 36.7275C82.3469 36.7275 82.6181 36.62 82.7809 36.4588C82.9979 36.2975 83.1063 36.0288 83.1063 35.7063V35.1688C83.1063 34.8463 82.9979 34.5775 82.7809 34.4163C82.5639 34.255 82.2926 34.1475 81.9672 34.1475H80.2855V36.7275H81.9672Z" fill="white"/>
        <path d="M73.3419 40.4363V33.395H77.7359V34.1475H74.2098V36.5125H77.5732V37.265H74.2098V39.7375H77.7359V40.49L73.3419 40.4363Z" fill="white"/>
        <path d="M67.212 33.395H69.5988C70.1956 33.395 70.6838 33.5563 71.0093 33.8788C71.3347 34.2013 71.4975 34.6313 71.4975 35.1688C71.4975 35.5988 71.389 35.9213 71.172 36.1363C70.955 36.3513 70.6838 36.5663 70.3583 36.62V36.6738C70.738 36.7813 71.0635 36.9425 71.3348 37.2113C71.606 37.48 71.7145 37.8563 71.7145 38.34C71.7145 38.6088 71.6602 38.8775 71.5517 39.1463C71.4432 39.415 71.3348 39.63 71.1178 39.7913C70.955 39.9525 70.738 40.1138 70.521 40.2213C70.3041 40.3288 70.0328 40.3825 69.7616 40.3825H67.0492L67.212 33.395ZM69.7073 39.6838C70.0871 39.6838 70.4126 39.5763 70.6295 39.415C70.8465 39.2538 70.955 38.985 70.955 38.6088V38.1788C70.955 37.8025 70.8465 37.5338 70.6295 37.3725C70.4126 37.2113 70.0871 37.1038 69.7073 37.1038H68.0799V39.63L69.7073 39.6838ZM69.5446 36.4588C69.9243 36.4588 70.1956 36.405 70.4126 36.2438C70.6295 36.0825 70.738 35.8138 70.738 35.545V35.1688C70.738 34.8463 70.6295 34.6313 70.4126 34.47C70.1956 34.3088 69.9243 34.2013 69.5446 34.2013H68.0799V36.5125L69.5446 36.4588Z" fill="white"/>
        <path d="M62.8722 40.4363V37.695L60.4311 33.4488H61.4076L62.4383 35.2763L63.3062 36.8888H63.3605L64.2284 35.2763L65.2591 33.4488H66.2355L63.7944 37.695V40.4363H62.8722Z" fill="white"/>
        <path d="M57.4475 40.5437C56.5796 40.5437 55.9286 40.2212 55.4946 39.63C55.0607 38.985 54.8437 38.125 54.8437 36.9425C54.8437 35.76 55.0607 34.8462 55.4946 34.255C55.9286 33.61 56.5796 33.3412 57.4475 33.3412C57.773 33.3412 58.0442 33.395 58.3155 33.4487C58.5325 33.5562 58.7495 33.6637 58.9122 33.825C59.0749 33.9862 59.2377 34.1475 59.3462 34.3087C59.4547 34.47 59.5632 34.685 59.6717 34.8462L58.9664 35.1687C58.9122 35.0075 58.858 34.8462 58.7495 34.7387C58.641 34.5775 58.5867 34.47 58.4782 34.3625C58.3697 34.255 58.2612 34.2012 58.0985 34.0937C57.9358 34.04 57.773 33.9862 57.556 33.9862C57.0136 33.9862 56.5796 34.2012 56.3083 34.6312C56.0371 35.0612 55.8744 35.5987 55.8744 36.2975V37.4262C55.8744 38.125 55.9829 38.7162 56.3083 39.0925C56.5796 39.5225 57.0136 39.7375 57.556 39.7375C57.773 39.7375 57.9358 39.6837 58.0985 39.63C58.2612 39.5762 58.3697 39.4687 58.4782 39.415C58.5867 39.3075 58.6952 39.2 58.7495 39.0387C58.858 38.8775 58.9122 38.77 58.9664 38.6087L59.6717 38.9312C59.5632 39.1462 59.5089 39.3075 59.3462 39.5225C59.2377 39.6837 59.0749 39.845 58.9122 40.0062C58.7495 40.1675 58.5325 40.275 58.3155 40.3825C58.0442 40.49 57.773 40.5437 57.4475 40.5437Z" fill="white"/>
        <path d="M65.6931 8.025H65.4218L60.4854 20.065L55.4946 8.025H55.2234V24.58L52.6196 27.16V3.77875H56.2541L60.3769 14.0988H60.5939L64.7166 3.77875H68.2427V24.58L65.6388 27.16L65.6931 8.025Z" fill="white"/>
        <path d="M73.1791 27.16V3.77875H87.6631L85.222 6.25125H76V14.0988H87.2834L84.8422 16.5713H76.0542V24.6875H87.7173L85.2762 27.1063H73.1791V27.16Z" fill="white"/>
        <path d="M95.4204 7.43375H95.2034V24.58L92.6538 27.1063V3.77875H96.6681L104.697 23.505H104.914V6.305L107.463 3.77875V27.16H103.449C103.395 27.16 95.4204 7.43375 95.4204 7.43375Z" fill="white"/>
        <path d="M126.829 27.16L124.822 20.495H116.577L114.57 27.16L112.345 24.9025L118.855 3.725H122.598L129.108 24.8487L126.829 27.16ZM120.862 6.735H120.537L117.228 18.0225H124.117L120.862 6.735Z" fill="white"/>
        <path d="M134.912 27.16L137.082 25.01H145.219C146.141 25.01 146.901 24.795 147.606 24.365C148.257 23.935 148.799 23.3975 149.125 22.6988C149.45 22 149.613 21.3013 149.613 20.5488C149.613 19.7963 149.45 19.0975 149.125 18.4525C148.799 17.8075 148.311 17.27 147.66 16.8938C147.009 16.4638 146.25 16.3025 145.382 16.3025H140.662C139.306 16.3025 138.167 16.0338 137.136 15.4963C136.16 14.9587 135.4 14.2063 134.858 13.2388C134.37 12.2713 134.098 11.25 134.098 10.0675C134.098 8.885 134.37 7.86375 134.858 6.89625C135.4 5.92875 136.16 5.1225 137.136 4.53125C138.113 3.94 139.306 3.6175 140.662 3.6175H150.535L148.365 5.7675H140.825C139.957 5.7675 139.198 5.9825 138.547 6.35875C137.896 6.78875 137.408 7.2725 137.082 7.9175C136.757 8.5625 136.594 9.2075 136.594 9.90625C136.594 10.605 136.757 11.25 137.082 11.895C137.408 12.54 137.896 13.0238 138.492 13.4538C139.143 13.83 139.903 14.045 140.771 14.045H145.545C146.955 14.045 148.148 14.3138 149.125 14.905C150.101 15.4425 150.861 16.2488 151.349 17.1625C151.891 18.0763 152.108 19.1513 152.108 20.28C152.108 21.57 151.837 22.6988 151.295 23.7738C150.752 24.795 150.047 25.6013 149.016 26.1925C148.04 26.7838 146.901 27.1063 145.49 27.1063L134.912 27.16Z" fill="white"/>
        </g>
        <defs>
        <clipPath id="clip0_45_145">
        <rect width="152" height="43" fill="white" transform="translate(0 0.5)"/>
        </clipPath>
        </defs>
        </svg>