<svg width="82" height="51" viewBox="0 0 82 51" fill="none" xmlns="http://www.w3.org/2000/svg">
<path d="M0 8.5C0 4.08172 3.58172 0.5 8 0.5H74C78.4183 0.5 82 4.08172 82 8.5V42.5C82 46.9183 78.4183 50.5 74 50.5H8C3.58172 50.5 0 46.9183 0 42.5V8.5Z" fill="#09A4D9"/>
<path d="M36.691 34.8776L46.7532 26.8831C47.2395 26.4275 47.6207 26.0851 47.6207 25.4987C47.6207 24.9123 47.296 24.594 46.7532 24.1143L36.691 16.1214C36.4501 16.0017 36.1828 15.9447 35.914 15.9557C35.6452 15.9667 35.3835 16.0454 35.1531 16.1844C34.6863 16.4638 34.3794 16.9646 34.3794 17.5041V33.4948C34.3853 33.7625 34.4596 34.0242 34.5953 34.2549C34.7311 34.4857 34.9237 34.6778 35.1548 34.813C35.3842 34.9534 35.6457 35.033 35.9145 35.0443C36.1833 35.0556 36.4505 34.9982 36.691 34.8776Z" fill="#1E1E1E"/>
</svg>
